<svg version="1.1" id="Layer_1" xmlns="http://www.w3.org/2000/svg" x="0px" y="0px"
    width="100%" viewBox="0 0 1024 1024" enable-background="new 0 0 1024 1024" xml:space="preserve">
    <!-- background -->
    <rect x="64" y="64" fill="#FFFFFF" width="896" height="896" rx="128" ry="128"/>
    <!-- N -->
    <path fill="#DD2222"
          d="
            M 135 250
            l 25 0
            l 0 5
            l 5 0
            l 0 10
            l 5 0
            l 0 5
            l 5 0
            l 0 10
            l 5 0
            l 0 5
            l 5 0
            l 0 10
            l 5 0
            l 0 5
            l 5 0
            l 0 10
            l 5 0
            l 0 10
            l 5 0
            l 0 5
            l 5 0
            l 0 10
            l 5 0
            l 0 5
            l 5 0
            l 0 5
            l 5 0
            l 0 10
            l 5 0
            l 0 5
            l 5 0
            l 0 10
            l 5 0
            l 0 5
            l 5 0
            l 0 10
            l 5 0
            l 0 10
            l 5 0
            l 0 -140
            l 5 0
            l 0 -5
            l 25 0
            l 0 5
            l 5 0
            l 0 230
            l -5 0
            l 0 5
            l -25 0
            l 0 -5
            l -5 0
            l 0 -10
            l -5 0
            l 0 -5
            l -5 0
            l 0 -10
            l -5 0
            l 0 -5
            l -5 0
            l 0 -10
            l -5 0
            l 0 -5
            l -5 0
            l 0 -10
            l -5 0
            l 0 -5
            l -5 0
            l 0 -10
            l -5 0
            l 0 -5
            l -5 0
            l 0 -10
            l -5 0
            l 0 -5
            l -5 0
            l 0 -10
            l -5 0
            l 0 -5
            l -5 0
            l 0 -10
            l -5 0
            l 0 -5
            l -5 0
            l 0 -10
            l -5 0
            l 0 -10
            l -5 0
            l 0 140
            l -5 0
            l 0 5
            l -25 0
            l 0 -5
            l -5 0
            l 0 -230
            l 5 0
            z"
    />
    <!-- E -->
    <path fill="#DD2222"
        d="
            M 340 250
            l 150 0
            l 0 5
            l 5 0
            l 0 25
            l -5 0
            l 0 5
            l -110 0
            l 0 5
            l -5 0
            l 0 50
            l 5 0
            l 0 5
            l 95 0
            l 0 5
            l 5 0
            l 0 25
            l -5 0
            l 0 5
            l -95 0
            l 0 5
            l -5 0
            l 0 65
            l 5 0
            l 0 5
            l 110 0
            l 0 5
            l 5 0
            l 0 25
            l -5 0
            l 0 5
            l -150 0
            l 0 -5
            l -5 0
            l 0 -230
            l 5 0
            z"
    />
    <!-- S -->
    <path fill="#DD2222"
        d="
            M 540 250
            l 150 0
            l 0 5
            l 5 0
            l 0 25
            l -5 0
            l 0 5
            l -110 0
            l 0 5
            l -5 0
            l 0 50
            l 5 0
            l 0 5
            l 110 0
            l 0 5
            l 5 0
            l 0 135
            l -5 0
            l 0 5
            l -150 0
            l 0 -5
            l -5 0
            l 0 -25
            l 5 0
            l 0 -5
            l 110 0
            l 0 -5
            l 5 0
            l 0 -65
            l -5 0
            l 0 -5
            l -110 0
            l 0 -5
            l -5 0
            l 0 -120
            l 5 0
            z"
    />
    <!-- d -->
    <path fill="#DD2222"
        d="
            M 865 250
            l 25 0
            l 0 5
            l 5 0
            l 0 230
            l -5 0
            l 0 5
            l -145 0
            l 0 -5
            l -5 0
            l 0 -135
            l 5 0
            l 0 -5
            l 110 0
            l 0 -5
            l 5 0
            l 0 -85
            l 5 0
            z"
        mask="url(#d-mask)"
    />
    <!-- hole in the d -->
    <path fill="#FFFFFF" d="
        M 780 380
        l 75 0
        l 0 5
        l 5 0
        l 0 65
        l -5 0
        l 0 5
        l -75 0
        l 0 -5
        l -5 0
        l 0 -65
        l 5 0
        z"
    />
    <!-- D-pad -->
    <path fill="#000000"
        d="
        M 170 590
        l 60 0
        l 0 60
        l 60 0
        l 0 60
        l -60 0
        l 0 60
        l -60 0
        l 0 -60
        l -60 0
        l 0 -60
        l 60 0
        z"
    />
    <!-- Select -->
    <rect fill="#000000" x="385" y="720" width="90" height="30" rx="15" ry="30" />
    <!-- Start -->
    <rect fill="#000000" x="515" y="720" width="90" height="30" rx="15" ry="30" />
    <!-- B -->
    <circle cx="740" cy="720" r="48" fill="#DD2222"/>
    <!-- A -->
    <circle cx="870" cy="720" r="48" fill="#DD2222"/>
</svg>